<?xml version="1.0" encoding="utf-8"?>
<!DOCTYPE svg PUBLIC "-//W3C//DTD SVG 20010904//EN" "http://www.w3.org/TR/2001/REC-SVG-20010904/DTD/svg10.dtd">
<svg version="1.0" xmlns="http://www.w3.org/2000/svg" width="300px" height="184px" viewBox="0 0 300 184" preserveAspectRatio="xMidYMid meet">
 <g fill="#cd2532">
  <path d="M0 92 l0 -92 150 0 150 0 0 92 0 92 -150 0 -150 0 0 -92z m180 45 l2 -2 0 -43 0 -43 -2 -2 -2 -2 -28 0 -28 0 -2 2 -2 2 0 43 0 43 2 2 2 2 28 0 28 0 2 -2z"/>
  <path d="M124 107 l0 -26 26 0 26 0 0 26 0 26 -26 0 -26 0 0 -26z"/>
  <path d="M124 64.5 l0 -13.5 26 0 26 0 0 13.5 0 13.5 -26 0 -26 0 0 -13.5z"/>
 </g>
 <g fill="#ffffff">
  <path d="M117 140 l-2 -2 0 -46 0 -46 2 -2 2 -2 31 0 31 0 2 2 2 2 0 46 0 46 -2 2 -2 2 -31 0 -31 0 -2 -2z m31 -14 l0 -4 -10.5 0 -10.5 0 0 4 0 4 10.5 0 10.5 0 0 -4z m12 0 l0 -4 -4 0 -4 0 0 4 0 4 4 0 4 0 0 -4z m13 0 l0 -4 -4 0 -4 0 0 4 0 4 4 0 4 0 0 -4z m-38 -13 l0 -4 -4 0 -4 0 0 4 0 4 4 0 4 0 0 -4z m13 0 l0 -4 -4 0 -4 0 0 4 0 4 4 0 4 0 0 -4z m12 0 l0 -4 -4 0 -4 0 0 4 0 4 4 0 4 0 0 -4z m13 0 l0 -4 -4 0 -4 0 0 4 0 4 4 0 4 0 0 -4z m-38 -12 l0 -4 -4 0 -4 0 0 4 0 4 4 0 4 0 0 -4z m13 0 l0 -4 -4 0 -4 0 0 4 0 4 4 0 4 0 0 -4z m12 0 l0 -4 -4 0 -4 0 0 4 0 4 4 0 4 0 0 -4z m13 0 l0 -4 -4 0 -4 0 0 4 0 4 4 0 4 0 0 -4z m-38 -13 l0 -4 -4 0 -4 0 0 4 0 4 4 0 4 0 0 -4z m13 0 l0 -4 -4 0 -4 0 0 4 0 4 4 0 4 0 0 -4z m12 0 l0 -4 -4 0 -4 0 0 4 0 4 4 0 4 0 0 -4z m13 0 l0 -4 -4 0 -4 0 0 4 0 4 4 0 4 0 0 -4z m0 -23.5 l0 -10.5 -23 0 -23 0 0 10.5 0 10.5 23 0 23 0 0 -10.5z"/>
 </g>
</svg>