<?xml version="1.0" encoding="utf-8"?>
<!DOCTYPE svg PUBLIC "-//W3C//DTD SVG 20010904//EN" "http://www.w3.org/TR/2001/REC-SVG-20010904/DTD/svg10.dtd">
<svg version="1.0" xmlns="http://www.w3.org/2000/svg" width="300px" height="184px" viewBox="0 0 300 184" preserveAspectRatio="xMidYMid meet">
 <g fill="#cd2532">
  <path d="M0 92 l0 -92 150 0 150 0 0 92 0 92 -150 0 -150 0 0 -92z m164.7 46.3 c-8.1 -0.2 -21.3 -0.2 -29.5 0 -8.1 0.1 -1.4 0.3 14.8 0.3 16.2 0 22.9 -0.2 14.7 -0.3z m0.6 -93 c-8.4 -0.2 -22.2 -0.2 -30.5 0 -8.4 0.1 -1.6 0.3 15.2 0.3 16.8 0 23.6 -0.2 15.3 -0.3z"/>
 </g>
 <g fill="#ffffff">
  <path d="M115.3 141.3 l-3.3 -0.4 0 -48.8 0 -48.8 3.8 -0.7 c4.8 -0.8 63.6 -0.8 68.5 0 l3.7 0.7 0 48.7 0 48.7 -4.6 0.7 c-4.9 0.6 -62.6 0.6 -68.1 -0.1z m66.2 -49.3 l0 -42.5 -31.5 0 -31.5 0 -0.3 41.5 c-0.1 22.8 0 42.1 0.3 42.8 0.3 1 7.2 1.2 31.7 1 l31.3 -0.3 0 -42.5z"/>
  <path d="M158.6 125.2 c-2.3 -2.5 -2.5 -3.1 -1.2 -4.1 1.1 -1 1.9 -0.9 3.5 0.1 1.9 1.1 2.4 1 4.4 -1.3 3.8 -4.4 5.3 -5.1 6.7 -3.5 1 1.2 0.3 2.4 -3.6 6.6 -2.5 2.7 -5.2 5 -5.8 5 -0.7 0 -2.5 -1.3 -4 -2.8z"/>
  <path d="M127 123 c0 -1.9 0.7 -2 10 -2 9.3 0 10 0.1 10 2 0 1.9 -0.7 2 -10 2 -9.3 0 -10 -0.1 -10 -2z"/>
  <path d="M158.5 106 c-2.4 -2.5 -2.6 -3.2 -1.5 -4.5 1.2 -1.4 1.5 -1.4 3.1 0.1 1.6 1.5 2.1 1.3 6.2 -2.5 3.9 -3.6 4.6 -3.9 5.7 -2.6 1.1 1.4 0.5 2.4 -4.1 7.1 -2.9 2.9 -5.6 5.4 -5.9 5.4 -0.4 0 -1.9 -1.3 -3.5 -3z"/>
  <path d="M127 103 c0 -1.9 0.7 -2 10 -2 9.3 0 10 0.1 10 2 0 1.9 -0.7 2 -10 2 -9.3 0 -10 -0.1 -10 -2z"/>
  <path d="M158.5 86 c-2.4 -2.5 -2.6 -3.2 -1.5 -4.5 1.2 -1.4 1.5 -1.4 3.2 0.2 1.8 1.6 2.1 1.5 6.2 -2.6 3.8 -3.7 4.4 -4 5.6 -2.6 1.2 1.4 0.6 2.3 -4.1 7.1 -2.9 2.9 -5.6 5.4 -5.9 5.4 -0.4 0 -1.9 -1.3 -3.5 -3z"/>
  <path d="M127 83 c0 -1.9 0.7 -2 10 -2 9.3 0 10 0.1 10 2 0 1.9 -0.7 2 -10 2 -9.3 0 -10 -0.1 -10 -2z"/>
  <path d="M158.5 66 c-2.3 -2.4 -2.6 -3.3 -1.7 -4.2 1 -1 1.7 -1 3.3 0.1 1.9 1.1 2.6 0.9 6.4 -2.9 3.7 -3.7 4.3 -3.9 5.5 -2.5 1.2 1.4 0.6 2.3 -4.1 7.1 -2.9 2.9 -5.6 5.4 -5.9 5.4 -0.4 0 -1.9 -1.4 -3.5 -3z"/>
  <path d="M127 63 c0 -1.9 0.7 -2 10 -2 9.3 0 10 0.1 10 2 0 1.9 -0.7 2 -10 2 -9.3 0 -10 -0.1 -10 -2z"/>
 </g>
</svg>