<?xml version="1.0" encoding="utf-8"?>
<!DOCTYPE svg PUBLIC "-//W3C//DTD SVG 20010904//EN" "http://www.w3.org/TR/2001/REC-SVG-20010904/DTD/svg10.dtd">
<svg version="1.0" xmlns="http://www.w3.org/2000/svg" width="300px" height="184px" viewBox="0 0 300 184" preserveAspectRatio="xMidYMid meet">
 <g fill="#cd2532">
  <path d="M0 92 l0 -92 150 0 150 0 0 92 0 92 -150 0 -150 0 0 -92z m186.2 35 c-0.4 -7.8 -0.6 -8.7 -3.4 -11.6 -4 -4.3 -15.1 -9.2 -24.8 -11.1 -7.3 -1.5 -8.7 -1.5 -16 0 -8.8 1.7 -21.2 7.2 -25.2 11.2 -3 3 -3.9 7.3 -3.1 15 l0.6 5.5 36.1 -0.2 36.1 -0.3 -0.3 -8.5z m-38.2 -41 c0 -5.3 2.2 -7.3 10.9 -10.1 3.9 -1.3 7.1 -2.8 7.1 -3.4 0 -3 -6.1 -10.3 -10.2 -12.4 -5.5 -2.6 -6.1 -2.6 -11.6 0 -5.1 2.5 -10.2 9.6 -10.2 14.3 0 4 4.2 10.9 8.2 13.5 4.8 3 5.8 2.7 5.8 -1.9z m32 -11 c0 -2.1 -0.4 -4.2 -1 -4.5 -0.6 -0.4 -1 1.3 -1 4.5 0 3.2 0.4 4.9 1 4.5 0.6 -0.3 1 -2.4 1 -4.5z"/>
 </g>
 <g fill="#ffffff">
  <path d="M110.5 131.6 c-0.9 -10 0.1 -15.9 3.3 -19.1 6.2 -6.3 24.3 -12.5 36.2 -12.5 12.3 0 29.7 6 35.8 12.4 3 3 3.1 3.3 3.4 14.6 l0.3 11.5 -39.1 0.3 -39.2 0.2 -0.7 -7.4z"/>
  <path d="M141.1 91.8 c-9.9 -4.9 -13.3 -18.3 -7.2 -28 5.2 -8.2 15.8 -11.1 24.9 -6.7 5.7 2.8 10.2 9.6 10.2 15.4 l0 4.1 -7.1 2.3 c-9 2.9 -10.9 4.8 -10.9 10.6 0 4.2 -0.2 4.5 -2.7 4.5 -1.6 0 -4.8 -1 -7.2 -2.2z"/>
  <path d="M156.6 90.4 c-2.1 -2 -0.4 -5.4 2.7 -5.4 1.2 0 5.2 -1 9 -2.2 l6.7 -2.2 0 -6.1 c0 -20.5 -23.3 -32.5 -39.9 -20.4 -4.8 3.4 -6.1 3.6 -6.1 0.9 0 -2.3 7.4 -7.5 13 -9 13.2 -3.7 28.5 3.1 34.5 15.4 1.5 3.1 3.5 5.6 4.6 5.9 1.8 0.5 2 1.3 1.7 7.9 l-0.3 7.3 -10.2 3.5 c-5.6 1.9 -10.8 4.1 -11.5 4.8 -1.6 1.6 -2.3 1.5 -4.2 -0.4z"/>
 </g>
</svg>