<?xml version="1.0" encoding="utf-8"?>
<!DOCTYPE svg PUBLIC "-//W3C//DTD SVG 20010904//EN" "http://www.w3.org/TR/2001/REC-SVG-20010904/DTD/svg10.dtd">
<svg version="1.0" xmlns="http://www.w3.org/2000/svg" width="300px" height="184px" viewBox="0 0 300 184" preserveAspectRatio="xMidYMid meet">
 <g fill="#cd2532">
  <path d="M0 92 l0 -92 150 0 150 0 0 92 0 92 -150 0 -150 0 0 -92z"/>
 </g>
 <g fill="#ffffff">
  <path d="M115.7 147.4 c-8.2 -1.5 -12.8 -3.3 -16.4 -6.7 -2.3 -2 -2.3 -2.1 -2.3 -35.7 0 -33.6 0 -33.7 2.2 -35.7 4.3 -3.9 11.8 -6.5 22.2 -7.5 4.5 -0.5 4.4 2 -0.1 2.7 -13.6 2.1 -22.2 6.1 -20.8 9.7 1.4 3.6 16.4 7.8 28.3 7.8 4.9 0 5.3 -0.2 4.7 -2 -0.9 -2.8 1.3 -9 3.2 -9 1 0 1.3 0.6 0.9 1.6 -2.3 6.1 -0.6 12.2 4 14.3 1.7 0.7 11.2 1.1 28.4 1.1 l25.9 0 2 -2.6 c4.1 -5.2 1.8 -10.8 -4.9 -11.9 -3 -0.5 -4 -1.1 -4 -2.6 0 -4.9 -8.1 -7.8 -12.6 -4.4 -2.9 2.2 -4.1 1.8 -3.6 -1.3 0.6 -4.2 -4.7 -8.5 -10 -8 -4.6 0.4 -6.1 -1.8 -1.7 -2.7 4.1 -0.9 9.4 1.1 12.5 4.8 2.3 2.7 3.1 3.1 6.9 2.8 4.8 -0.3 9 1.8 10 5 0.4 1.1 2.7 2.9 5.1 4.1 8 3.7 9.6 11.9 3.3 17.2 -2.9 2.5 -3.6 2.6 -16 2.6 l-12.9 0 0 23.9 0 23.9 -3 2.5 c-7.9 6.7 -32.1 9.6 -51.3 6.1z m41.1 -4.2 c9.6 -3.1 10.2 -3.9 10.2 -13.9 0 -8 -0.5 -9.3 -2.6 -7.4 -1.9 1.8 -11.2 4.1 -20.9 5.2 -14.1 1.5 -29.8 -0.1 -39.2 -4.2 l-4.3 -1.8 0 8.4 c0 7.8 0.2 8.5 2.6 10.4 2.6 2 6.3 3.3 14.8 5.1 7.5 1.6 32.3 0.5 39.4 -1.8z m-2.7 -20.5 c3.1 -0.8 7.2 -2.3 9 -3.3 l3.4 -2 0.3 -8.7 c0.1 -4.8 0 -8.7 -0.3 -8.7 -0.3 0 -2 0.7 -3.6 1.6 -11.4 5.8 -47.5 5.8 -58.9 -0.1 -1.6 -0.8 -3.2 -1.5 -3.5 -1.5 -0.3 0 -0.4 3.9 -0.3 8.7 l0.3 8.8 4.1 2.2 c9.1 5 34.5 6.5 49.5 3z m3.4 -22 c5.8 -1.9 9.5 -4.9 9.5 -7.7 0 -1.9 -0.7 -2 -12.1 -2 -10.6 0 -12.6 -0.3 -15.5 -2.1 -1.9 -1.1 -3.4 -2.5 -3.4 -3 0 -0.5 -2.9 -0.9 -6.5 -0.9 -8.1 0 -20.6 -2.5 -25.7 -5.1 l-3.8 -1.9 0 9 c0 8.6 0.1 9 2.7 10.7 1.4 1 5.6 2.5 9.2 3.5 8.6 2.3 37.7 2 45.6 -0.5z"/>
  <path d="M146.2 76.7 c-2.3 -2.3 -4.2 -4.6 -4.2 -5 0 -1.4 2.4 -0.7 4.7 1.5 l2.3 2.1 0 -7.1 c0 -5.7 0.3 -7.2 1.5 -7.2 1.2 0 1.5 1.5 1.5 7.2 l0 7.1 2.5 -2.3 c1.7 -1.6 2.9 -2 3.5 -1.4 0.7 0.7 -0.5 2.4 -3.3 5.2 l-4.3 4.2 -4.2 -4.3z"/>
  <path d="M128.1 62.6 c-2.8 -2.9 -3.9 -4.6 -3.1 -5.1 0.6 -0.4 2.2 0.3 3.6 1.6 l2.4 2.2 0 -7.1 c0 -5.7 0.3 -7.2 1.5 -7.2 1.2 0 1.5 1.4 1.5 7 0 3.9 0.4 7 0.8 7 0.5 0 1.7 -0.9 2.7 -2 1.3 -1.4 2.2 -1.7 2.9 -1 0.7 0.7 -0.2 2.3 -2.9 5 -2.1 2.2 -4.2 4 -4.5 4 -0.3 0 -2.5 -2 -4.9 -4.4z"/>
  <path d="M149.6 57.3 c-1.2 -1.2 -0.6 -3.3 0.9 -3.3 0.8 0 1.5 0.6 1.5 1.4 0 1.7 -1.4 2.8 -2.4 1.9z"/>
  <path d="M149 50.5 c0 -0.8 0.7 -1.5 1.5 -1.5 0.8 0 1.5 0.7 1.5 1.5 0 0.8 -0.7 1.5 -1.5 1.5 -0.8 0 -1.5 -0.7 -1.5 -1.5z"/>
  <path d="M131 42.5 c0 -0.8 0.7 -1.5 1.5 -1.5 0.8 0 1.5 0.7 1.5 1.5 0 0.8 -0.7 1.5 -1.5 1.5 -0.8 0 -1.5 -0.7 -1.5 -1.5z"/>
  <path d="M131 36.5 c0 -0.8 0.7 -1.5 1.5 -1.5 0.8 0 1.5 0.7 1.5 1.5 0 0.8 -0.7 1.5 -1.5 1.5 -0.8 0 -1.5 -0.7 -1.5 -1.5z"/>
 </g>
</svg>