<?xml version="1.0" encoding="UTF-8" standalone="no"?>
<svg
   version="1.0"
   width="300.000000px"
   height="184.000000px"
   viewBox="0 0 300.000000 184.000000"
   preserveAspectRatio="xMidYMid meet"
   id="svg10"
   xmlns="http://www.w3.org/2000/svg"
   xmlns:svg="http://www.w3.org/2000/svg">
  <defs
     id="defs14" />
  <g
     transform="translate(0.000000,184.000000) scale(0.100000,-0.100000)"
     fill="#000000"
     stroke="none"
     id="g8"
     style="fill:#cd2532;fill-opacity:1">
    <path
       d="M0 920 l0 -920 1500 0 1500 0 0 920 0 920 -1500 0 -1500 0 0 -920z m1655 590 c175 -85 245 -308 150 -476 -31 -53 -105 -121 -163 -147 -67 -31 -207 -30 -275 1 -190 87 -261 331 -146 505 36 54 105 108 169 131 68 24 200 17 265 -14z m-307 -672 c54 -31 63 -33 157 -33 95 0 103 2 162 34 73 39 101 38 199 -11 112 -54 207 -167 244 -287 23 -73 28 -219 8 -239 -17 -17 -1209 -17 -1226 0 -20 20 -15 170 9 241 39 118 133 228 240 282 105 54 131 56 207 13z"
       id="path2"
       style="fill:#cd2532;fill-opacity:1" />
    <path
       d="M1420 1419 c-43 -17 -89 -58 -115 -103 -68 -117 -23 -261 101 -322 142 -69 312 25 331 184 11 93 -47 195 -132 233 -44 20 -143 24 -185 8z"
       id="path4"
       style="fill:#cd2532;fill-opacity:1" />
    <path
       d="M1690 727 c-53 -24 -82 -31 -160 -35 -85 -4 -103 -1 -170 22 -112 40 -112 40 -170 11 -103 -52 -186 -169 -197 -279 l-6 -56 522 0 522 0 -6 48 c-15 105 -93 227 -179 277 -76 44 -85 45 -156 12z"
       id="path6"
       style="fill:#cd2532;fill-opacity:1" />
  </g>
</svg>
