<?xml version="1.0" encoding="utf-8"?>
<!DOCTYPE svg PUBLIC "-//W3C//DTD SVG 20010904//EN" "http://www.w3.org/TR/2001/REC-SVG-20010904/DTD/svg10.dtd">
<svg version="1.0" xmlns="http://www.w3.org/2000/svg" width="300px" height="184px" viewBox="0 0 300 184" preserveAspectRatio="xMidYMid meet">
 <g fill="#cd2532">
  <path d="M0 92 l0 -92 150 0 150 0 0 92 0 92 -150 0 -150 0 0 -92z m151.8 46.3 c-1.6 -0.2 -4 -0.2 -5.5 0 -1.6 0.2 -0.3 0.4 2.7 0.4 3 0 4.3 -0.2 2.8 -0.4z m29.2 -69.5 l-4.5 -4 -0.5 3.3 c-0.5 3.2 -0.3 3.4 3 4 6.4 1.1 6.5 0.9 2 -3.3z m-26.8 -7.8 l-0.3 -11 2.7 0 c2.6 0 2.7 0 0.9 -2 -3.9 -4.3 -4.5 -2.8 -4.5 11 0 7.2 0.3 13 0.8 13 0.4 0 0.6 -4.9 0.4 -11z"/>
 </g>
 <g fill="#ffffff">
  <path d="M126.8 141.3 l-14.8 -0.4 0 -48.9 0 -49 10.3 -0.2 c5.6 -0.1 16 0 23.2 0.2 l13 0.3 14.8 13 14.7 12.9 0 35.9 0 35.9 -11.3 0 c-6.3 0 -16.7 0.2 -23.3 0.3 -6.5 0.2 -18.5 0.2 -26.6 0z m55 -35.9 l0.2 -29.2 -2.2 -0.6 c-1.3 -0.3 -8.5 -0.6 -16 -0.6 l-13.8 0 0 -13 0 -13.1 -15.7 0.3 -15.8 0.3 -0.3 41.5 c-0.1 22.8 0 42.1 0.3 42.8 0.3 1 7.2 1.2 31.7 1 l31.3 -0.3 0.3 -29.1z m-9.4 -37.1 c0.7 -0.7 -13.2 -15.3 -14.6 -15.3 -1 0 -1.1 14.4 -0.1 15.3 0.9 0.9 13.8 0.9 14.7 0z"/>
  <path d="M127 121 c0 -1.9 0.7 -2 23 -2 22.3 0 23 0.1 23 2 0 1.9 -0.7 2 -23 2 -22.3 0 -23 -0.1 -23 -2z"/>
  <path d="M127 111 c0 -1.9 0.7 -2 23 -2 22.3 0 23 0.1 23 2 0 1.9 -0.7 2 -23 2 -22.3 0 -23 -0.1 -23 -2z"/>
  <path d="M127 101 c0 -1.9 0.7 -2 23 -2 22.3 0 23 0.1 23 2 0 1.9 -0.7 2 -23 2 -22.3 0 -23 -0.1 -23 -2z"/>
  <path d="M127 91 c0 -1.9 0.7 -2 23 -2 22.3 0 23 0.1 23 2 0 1.9 -0.7 2 -23 2 -22.3 0 -23 -0.1 -23 -2z"/>
  <path d="M127 81 c0 -1.8 0.7 -2 7.5 -2 6.8 0 7.5 0.2 7.5 2 0 1.8 -0.7 2 -7.5 2 -6.8 0 -7.5 -0.2 -7.5 -2z"/>
 </g>
</svg>