<?xml version="1.0" encoding="utf-8"?>
<!DOCTYPE svg PUBLIC "-//W3C//DTD SVG 20010904//EN" "http://www.w3.org/TR/2001/REC-SVG-20010904/DTD/svg10.dtd">
<svg version="1.0" xmlns="http://www.w3.org/2000/svg" width="300px" height="184px" viewBox="0 0 300 184" preserveAspectRatio="xMidYMid meet">
 <g fill="#cd2532">
  <path d="M0 92 l0 -92 150 0 150 0 0 92 0 92 -150 0 -150 0 0 -92z m130.3 31.3 c-5.1 -0.2 -13.6 -0.2 -19 0 -5.4 0.1 -1.2 0.3 9.2 0.3 10.5 0 14.9 -0.2 9.8 -0.3z m58 0 c-5.1 -0.2 -13.5 -0.2 -18.5 0 -5.1 0.1 -1 0.3 9.2 0.3 10.2 0 14.3 -0.2 9.3 -0.3z m-76.1 -28 c-0.4 -29.9 -0.8 -32.7 -1 -8.5 -0.1 13.3 0.1 24.2 0.6 24.2 0.4 0 0.6 -7.1 0.4 -15.7z m76.6 -8.5 l-0.3 -24.3 -0.2 23.7 -0.3 23.8 -27.8 0.3 -27.7 0.2 28.3 0.3 28.2 0.2 -0.2 -24.2z m-22.1 -26.5 c-9.8 -0.2 -25.6 -0.2 -35 0 -9.5 0.1 -1.4 0.3 17.8 0.2 19.3 0 27 -0.1 17.2 -0.2z"/>
 </g>
 <g fill="#ffffff">
  <path d="M97.5 126.3 c-2.9 -0.8 -4.5 -2.3 -4.5 -4.4 0 -1.8 1.2 -1.9 24.5 -1.9 15.7 0 24.5 0.4 24.5 1 0 0.6 3.3 1 8 1 4.7 0 8 -0.4 8 -1 0 -0.6 8.8 -1 24.5 -1 23.3 0 24.5 0.1 24.5 1.9 0 4.6 -0.2 4.6 -55.4 4.8 -28.7 0 -53 -0.1 -54.1 -0.4z"/>
  <path d="M108 87.1 c0 -26.8 0 -27 2.2 -28.5 1.9 -1.4 7.4 -1.6 39.3 -1.6 27.8 0 37.6 0.3 39.5 1.3 l2.5 1.3 0.3 27.2 0.2 27.2 -42 0 -42 0 0 -26.9z m53.2 19.9 l23.8 0 0 -21.5 0 -21.5 -35 0 -35 0 0 21.3 c0 11.8 0.3 21.7 0.8 22.2 0.4 0.4 5.4 0.5 11.1 0.1 5.7 -0.3 21.1 -0.6 34.3 -0.6z"/>
  <path d="M144.4 101.9 c-4.2 -1.2 -10.1 -7.9 -11 -12.4 -1.5 -8.1 2.5 -16.3 9.5 -19.2 4.7 -2 13.3 -1.3 16.9 1.4 6 4.4 8.7 13.2 6.1 20 -1.5 4.2 -6.8 9.2 -10.9 10.3 -4.1 1.2 -6.4 1.1 -10.6 -0.1z m0.8 -4.6 c-1.1 -1.6 -2.5 -4.5 -3.1 -6.5 -1.1 -3.3 -1.7 -3.8 -4.2 -3.8 -1.6 0 -2.9 0.5 -2.9 1 0 3.7 7.4 12 10.6 12 1.3 0 1.2 -0.5 -0.4 -2.7z m13.8 0.1 c3 -2.6 6 -7.2 6 -9.4 0 -0.5 -1.3 -1 -2.9 -1 -2.4 0 -3.1 0.5 -3.6 3 -0.4 1.6 -1.7 4.5 -3 6.5 -3 4.3 -1.2 4.8 3.5 0.9z m-10 -4.9 c0 -5.4 0 -5.5 -3 -5.5 -1.6 0 -3 0.4 -3 0.9 0 2.7 4.1 10.1 5.7 10.1 0.1 0 0.3 -2.5 0.3 -5.5z m6.7 -0.2 c1.9 -4.6 1.7 -5.3 -1.7 -5.3 -3 0 -3 0 -3 5.6 0 5.1 0.1 5.5 1.7 4.3 0.9 -0.8 2.2 -2.8 3 -4.6z m-14.2 -10.3 c0.4 -1.6 1.8 -4.6 3.1 -6.6 3 -4.4 2.5 -5.2 -1.7 -2.8 -3.8 2.2 -6.6 5.8 -7.5 9.7 -0.6 2.5 -0.4 2.7 2.4 2.7 2.6 0 3.1 -0.5 3.7 -3z m7.5 -2.5 c0 -3 -0.4 -5.5 -0.8 -5.5 -1.1 0 -5.2 7.4 -5.2 9.4 0 1.1 0.9 1.6 3 1.6 3 0 3 -0.1 3 -5.5z m8 4 c0 -1.9 -3.6 -9.1 -5 -10 -0.6 -0.4 -1 1.6 -1 5.4 l0 6.1 3 0 c2 0 3 -0.5 3 -1.5z m7.5 -1.2 c-0.3 -1.6 -1.3 -3.8 -2.1 -5.1 -1.5 -2.3 -7.5 -6.5 -8.2 -5.7 -0.2 0.2 1 3.3 2.8 6.9 2.6 5.6 3.5 6.6 5.7 6.6 2.2 0 2.4 -0.3 1.8 -2.7z"/>
 </g>
</svg>