<?xml version="1.0" encoding="utf-8"?>
<!DOCTYPE svg PUBLIC "-//W3C//DTD SVG 20010904//EN" "http://www.w3.org/TR/2001/REC-SVG-20010904/DTD/svg10.dtd">
<svg version="1.0" xmlns="http://www.w3.org/2000/svg" width="300px" height="184px" viewBox="0 0 300 184" preserveAspectRatio="xMidYMid meet">
 <g fill="#cd2532">
  <path d="M0 92 l0 -92 150 0 150 0 0 92 0 92 -150 0 -150 0 0 -92z m154 18.5 c0 -1.2 2.4 -1.5 13.3 -1.8 7.2 -0.1 -0.5 -0.3 -17.3 -0.3 -16.8 0 -24.5 0.2 -17.2 0.3 10.8 0.3 13.2 0.6 13.2 1.8 0 1.1 1.1 1.5 4 1.5 2.9 0 4 -0.4 4 -1.5z m-4 -54.5 l38 0 0.3 26.3 0.2 26.2 0.3 -27.2 0.2 -27.3 -39 0 -39 0 0.2 27.3 0.3 27.2 0.2 -26.2 0.3 -26.3 38 0z m-13.7 38 c0.6 -2.4 -0.2 -6 -1.3 -6 -1.3 0 -2.2 3.8 -1.5 6 0.3 1.1 1 2 1.5 2 0.4 0 1 -0.9 1.3 -2z m15.5 -6.2 c-0.3 -7 -0.6 -8.3 -2 -8.6 -1.6 -0.3 -1.8 0.6 -1.8 8.2 0 8 0.1 8.6 2 8.6 2 0 2.1 -0.5 1.8 -8.2z m14.4 1.2 c0.6 -8.1 -0.1 -21 -1.2 -21 -0.4 0 -1 3.2 -1.3 7 -0.6 7.7 0.2 21 1.3 21 0.4 0 1 -3.1 1.2 -7z"/>
 </g>
 <g fill="#ffffff">
  <path d="M148.7 138.4 c-0.4 -0.4 -0.7 -5.8 -0.7 -12.1 0 -6.2 -0.3 -11.3 -0.8 -11.3 -0.4 0 -5.2 4.5 -10.7 10 -5.5 5.5 -10.5 10 -11.2 10 -3.2 0 -0.5 -4.2 8.4 -13.2 l9.8 -9.8 -9.6 0 c-16.9 0 -30.9 -1.2 -30.9 -2.6 0 -0.7 1 -1.4 2.3 -1.6 l2.2 -0.3 0 -26 0 -26 -2.3 -0.3 c-1.5 -0.2 -2.2 -0.9 -2 -2 0.3 -1.5 2.7 -1.7 22.5 -2 22.1 -0.2 22.2 -0.2 22.5 -2.5 0.4 -2.9 3.2 -2.9 3.6 0 0.3 2.3 0.4 2.3 22.5 2.5 19.8 0.3 22.2 0.5 22.5 2 0.2 1.1 -0.5 1.8 -2 2 l-2.3 0.3 0 26 0 26 2.3 0.3 c1.2 0.2 2.2 0.9 2.2 1.6 0 1.4 -14 2.6 -30.9 2.6 l-9.6 0 9.8 9.8 c8.9 9 11.6 13.2 8.4 13.2 -0.7 0 -5.7 -4.5 -11.2 -10 -5.5 -5.5 -10.3 -10 -10.7 -10 -0.4 0 -0.9 5.3 -1 11.7 -0.3 10.8 -1.1 13.7 -3.1 11.7z m36.3 -56.4 l0 -23 -35 0 -35 0 0 23 0 23 35 0 35 0 0 -23z"/>
  <path d="M130.6 97.4 c-0.3 -0.9 -0.6 -3.3 -0.6 -5.4 0 -6 0.7 -7 5.1 -7 3.6 0 3.9 0.2 4.5 3.5 0.3 1.9 0.3 5.1 0 7 -0.6 3.3 -0.9 3.5 -4.5 3.5 -2.6 0 -4.1 -0.5 -4.5 -1.6z"/>
  <path d="M145 87.4 l0 -11.5 4.8 0.3 4.7 0.3 0.3 11.3 0.3 11.2 -5.1 0 -5 0 0 -11.6z"/>
  <path d="M160.6 90.5 c-0.4 -4.7 -0.4 -12.3 0 -17 l0.7 -8.5 3.7 0 3.7 0 0.7 8.5 c0.3 4.7 0.3 12.3 0 17 l-0.7 8.5 -3.7 0 -3.7 0 -0.7 -8.5z"/>
 </g>
</svg>