<?xml version="1.0" encoding="UTF-8" standalone="no"?>
<svg
   version="1.0"
   width="300.000000px"
   height="184.000000px"
   viewBox="0 0 300.000000 184.000000"
   preserveAspectRatio="xMidYMid meet"
   id="svg20340"
   sodipodi:docname="Production Control.svg"
   inkscape:version="1.1.1 (3bf5ae0d25, 2021-09-20)"
   xmlns:inkscape="http://www.inkscape.org/namespaces/inkscape"
   xmlns:sodipodi="http://sodipodi.sourceforge.net/DTD/sodipodi-0.dtd"
   xmlns="http://www.w3.org/2000/svg"
   xmlns:svg="http://www.w3.org/2000/svg">
  <defs
     id="defs20344" />
  <sodipodi:namedview
     id="namedview20342"
     pagecolor="#ffffff"
     bordercolor="#666666"
     borderopacity="1.0"
     inkscape:pageshadow="2"
     inkscape:pageopacity="0.0"
     inkscape:pagecheckerboard="0"
     inkscape:document-units="pt"
     showgrid="false"
     inkscape:zoom="2.645"
     inkscape:cx="199.81096"
     inkscape:cy="122.68431"
     inkscape:window-width="1920"
     inkscape:window-height="1017"
     inkscape:window-x="1912"
     inkscape:window-y="-8"
     inkscape:window-maximized="1"
     inkscape:current-layer="svg20340" />
  <g
     transform="translate(0.000000,184.000000) scale(0.100000,-0.100000)"
     fill="#000000"
     stroke="none"
     id="g20338"
     style="fill:#cd2532;fill-opacity:1">
    <path
       d="M0 920 l0 -920 1500 0 1500 0 0 920 0 920 -1500 0 -1500 0 0 -920z m2140 0 l0 -530 -60 0 -60 0 0 32 c0 27 -2 29 -12 16 -40 -49 -29 -48 -551 -48 -516 0 -517 0 -559 46 -9 11 -22 40 -28 66 -11 43 -10 52 11 95 16 33 35 54 59 65 l35 18 -47 0 c-51 0 -63 9 -53 40 6 20 16 20 576 20 l569 0 0 145 c0 80 -3 145 -7 146 -5 0 -36 1 -70 3 -89 3 -125 43 -102 113 14 44 34 53 113 53 l66 0 0 125 0 125 60 0 60 0 0 -530z m-447 505 c16 -8 54 -39 85 -68 31 -30 77 -72 102 -95 l45 -41 -32 -7 c-36 -7 -66 -36 -79 -75 l-9 -27 -79 73 c-44 40 -84 72 -90 70 -6 -2 -33 -8 -61 -15 -115 -28 -113 -26 -131 -88 -9 -31 -21 -62 -28 -69 -6 -6 -46 -21 -90 -33 -64 -18 -80 -19 -87 -8 -22 34 -10 45 66 63 68 16 75 20 80 47 4 16 5 30 3 31 -52 27 -65 67 -28 87 l22 12 -28 29 c-32 33 -46 35 -121 13 -46 -13 -57 -14 -64 -3 -21 34 -9 44 79 66 l87 21 57 -55 c61 -60 51 -58 151 -32 30 8 37 14 37 35 0 27 49 84 72 84 7 0 26 -7 41 -15z m-533 -575 l0 -100 -98 0 -97 0 -1 100 0 100 98 0 98 0 0 -100z m247 3 l-2 -98 -97 -3 -98 -3 0 101 0 100 99 0 99 0 -1 -97z m253 -3 l0 -100 -100 0 -100 0 0 100 0 100 100 0 100 0 0 -100z m240 0 l0 -101 -97 3 -98 3 -3 98 -3 97 101 0 100 0 0 -100z"
       id="path20322"
       style="fill:#cd2532;fill-opacity:1" />
    <path
       d="M1947 673 c12 -2 33 -16 47 -30 l26 -26 0 32 c0 31 -1 31 -47 30 -27 -1 -38 -4 -26 -6z"
       id="path20324"
       style="fill:#cd2532;fill-opacity:1" />
    <path
       d="M985 626 c-52 -23 -73 -108 -37 -152 36 -45 82 -55 132 -29 73 38 70 144 -5 180 -39 18 -51 18 -90 1z m99 -48 c23 -32 20 -65 -10 -94 -19 -20 -31 -24 -52 -19 -61 15 -82 75 -42 115 28 28 84 27 104 -2z"
       id="path20326"
       style="fill:#cd2532;fill-opacity:1" />
    <path
       d="M1017 554 c-4 -4 -7 -16 -7 -26 0 -14 6 -19 23 -16 14 2 22 10 22 23 0 20 -25 32 -38 19z"
       id="path20328"
       style="fill:#cd2532;fill-opacity:1" />
    <path
       d="M1398 624 c-65 -35 -73 -121 -17 -168 40 -34 88 -34 128 0 56 47 50 126 -11 164 -39 24 -63 25 -100 4z m106 -58 c19 -25 19 -29 6 -54 -9 -14 -27 -33 -41 -41 -22 -12 -29 -12 -54 0 -52 25 -50 99 4 125 30 15 59 5 85 -30z"
       id="path20330"
       style="fill:#cd2532;fill-opacity:1" />
    <path
       d="M1424 545 c-8 -20 4 -35 27 -35 14 0 19 7 19 25 0 18 -5 25 -20 25 -11 0 -23 -7 -26 -15z"
       id="path20332"
       style="fill:#cd2532;fill-opacity:1" />
    <path
       d="M1850 633 c-8 -3 -27 -17 -42 -31 -22 -21 -28 -35 -28 -70 0 -109 144 -140 193 -41 8 18 14 37 12 43 -2 6 -6 23 -9 38 -10 44 -79 78 -126 61z m80 -53 c29 -29 26 -74 -6 -99 -35 -27 -59 -26 -89 4 -46 45 -19 115 45 115 17 0 39 -9 50 -20z"
       id="path20334"
       style="fill:#cd2532;fill-opacity:1" />
    <path
       d="M1864 545 c-4 -9 -2 -21 4 -27 15 -15 44 -1 40 19 -4 23 -36 29 -44 8z"
       id="path20336"
       style="fill:#cd2532;fill-opacity:1" />
  </g>
  <path
     style="fill:none;stroke-width:0.378072"
     d="M 0.18903592,122.49527 V 0 H 200 399.81096 V 122.49527 244.99055 H 200 0.18903592 Z M 244.61248,193.19843 c 11.50277,-0.37065 16.53678,-0.96826 19.07837,-2.26488 0.79241,-0.40426 2.31071,-1.7111 3.374,-2.90408 l 1.93326,-2.16907 v 3.85619 3.85619 h 8.31758 8.31758 V 122.68431 51.795841 h -8.31758 -8.31758 v 16.635161 16.635161 l -5.7656,0.003 c -10.16248,0.0051 -14.384,0.902004 -16.19134,3.440185 -1.53636,2.157619 -2.38955,5.231989 -2.40973,8.683225 -0.0173,2.961777 0.0789,3.398897 1.11525,5.063867 1.28285,2.06107 3.84456,3.71614 7.08131,4.57507 1.09583,0.2908 4.96763,0.70803 8.60401,0.92718 3.63638,0.21916 6.78382,0.57059 6.99433,0.78096 0.24441,0.24426 0.42894,7.13946 0.51059,19.07839 l 0.12785,18.69574 -39.8254,0.0362 c -52.66798,0.0478 -107.83289,0.56064 -109.90022,1.02159 -2.01502,0.4493 -2.66505,1.06297 -3.08141,2.90907 -0.74721,3.31299 0.68015,4.20494 7.31932,4.57382 l 4.79482,0.2664 -2.93831,1.67215 c -1.61607,0.91967 -3.34516,2.043 -3.84243,2.49628 -1.36434,1.24362 -3.94776,5.3897 -5.34286,8.57461 -1.58493,3.61831 -1.6386,6.58934 -0.20689,11.45429 1.28338,4.36094 2.78262,7.25882 4.80721,9.29189 4.56627,4.58537 7.88253,4.81014 72.15706,4.89071 22.3535,0.028 45.57656,-0.10804 51.60681,-0.30235 z M 154.82042,131.94707 V 118.33648 H 141.5879 128.35539 v 13.61059 13.61059 h 13.23251 13.23252 z m 22.09177,13.22924 c 5.60038,-0.19897 10.31048,-0.49229 10.46689,-0.65183 0.15641,-0.15954 0.33798,-6.11722 0.4035,-13.23928 l 0.11912,-12.9492 -13.32703,2.4e-4 -13.32703,2.4e-4 v 13.61059 13.61059 l 2.74102,-0.01 c 1.50756,-0.005 7.32315,-0.17259 12.92353,-0.37155 z m 44.44887,-13.22924 v -13.61059 h -13.42155 -13.42155 v 13.61059 13.61059 h 13.42155 13.42155 z m 32.1361,0 v -13.61059 h -13.65928 -13.65929 l 0.23,3.6862 c 0.12651,2.02741 0.34157,7.98205 0.47791,13.23252 l 0.2479,9.54631 1.55568,0.0493 c 0.85561,0.0271 4.78818,0.16639 8.73903,0.30951 3.95085,0.14312 9.18242,0.29107 11.62571,0.32878 l 4.44234,0.0686 z m -76.74858,-26.39673 c 8.2875,-2.41602 11.75548,-3.8448 12.68197,-5.22486 0.84422,-1.257506 2.09119,-4.568365 3.82434,-10.15404 1.27306,-4.102865 2.68766,-5.871606 5.54576,-6.934113 1.07552,-0.399826 5.91484,-1.703206 10.75405,-2.896401 l 8.79855,-2.16944 1.59842,1.054215 c 2.3838,1.572197 6.8925,5.425482 14.0748,12.028794 3.53497,3.250008 6.52133,5.909297 6.63635,5.909535 0.11503,2.38e-4 0.59479,-1.196971 1.06614,-2.660461 1.96271,-6.09403 5.65747,-9.577592 11.7245,-11.054325 l 3.54798,-0.863588 -6.7582,-6.226665 c -3.71701,-3.424666 -8.71624,-8.074144 -11.10941,-10.332178 -9.09502,-8.581437 -15.22616,-12.718684 -18.84826,-12.718684 -1.18236,0 -1.91078,0.322245 -3.41351,1.510079 -3.40354,2.690344 -6.44911,7.46806 -6.46678,10.144711 -0.0145,2.195833 -1.43153,3.153436 -6.74008,4.554824 -7.7223,2.038586 -9.28821,2.144541 -11.80303,0.798646 -0.47896,-0.256329 -3.73898,-3.252321 -7.24449,-6.657761 -3.50551,-3.405441 -6.54477,-6.191709 -6.7539,-6.191709 -0.90621,0 -17.02604,4.181312 -19.07435,4.947682 -2.5724,0.962458 -4.34998,2.524046 -4.34087,3.813407 0.003,0.483856 0.39053,1.560272 0.86025,2.39203 0.75671,1.33997 1.03379,1.525425 2.43174,1.627591 0.97857,0.07152 3.84646,-0.48637 7.55185,-1.469047 9.51035,-2.522162 10.94115,-2.273278 15.915,2.768382 l 2.75748,2.795089 -1.81733,0.989115 c -2.87488,1.564711 -3.70259,2.658541 -3.67005,4.850053 0.0219,1.478004 0.26135,2.148756 1.16967,3.277138 1.06082,1.317826 3.51199,3.406189 4.92816,4.198719 0.53832,0.301258 0.55366,0.614355 0.13449,2.744971 -0.91686,4.660284 -1.20335,4.869637 -9.72895,7.109354 -6.34678,1.667334 -9.3354,2.722177 -10.37301,3.661207 -1.22645,1.10992 -0.87663,3.70503 0.75263,5.58327 0.91999,1.06057 5.1513,0.61265 11.38809,-1.20554 z"
     id="path20628"
     transform="scale(0.75)" />
</svg>
