<?xml version="1.0" encoding="utf-8"?>
<!DOCTYPE svg PUBLIC "-//W3C//DTD SVG 20010904//EN" "http://www.w3.org/TR/2001/REC-SVG-20010904/DTD/svg10.dtd">
<svg version="1.0" xmlns="http://www.w3.org/2000/svg" width="300px" height="184px" viewBox="0 0 300 184" preserveAspectRatio="xMidYMid meet">
 <g fill="#cd2532">
  <path d="M0 92 l0 -92 150 0 150 0 0 92 0 92 -150 0 -150 0 0 -92z"/>
 </g>
 <g fill="#ffffff">
  <path d="M118.3 145.1 c-4.5 -2.8 -6.1 -8.5 -3.8 -13.4 0.9 -1.9 2.4 -3.9 3.3 -4.4 0.9 -0.4 13.8 -1 28.6 -1.3 l27 -0.5 1.8 -6 c1 -3.3 1.8 -6.3 1.8 -6.7 0 -0.5 -14.6 -0.8 -32.5 -0.8 l-32.5 0 -2.2 -7.6 c-2 -6.6 -2.6 -7.7 -5.3 -8.9 -9.2 -3.8 -15.7 -13.8 -15.7 -24.4 -0.1 -10.5 5 -18.9 14.4 -23.7 13.3 -6.8 28.5 -1.9 35.6 11.4 l3.1 5.7 24.8 0 24.8 0 2.3 -7.5 c4 -12.9 3.2 -12 11.2 -12 6.3 0 7 0.2 7 2 0 1.8 -0.7 2 -6 2 -4 0 -6.2 0.4 -6.5 1.3 -0.2 0.6 -5.4 17.9 -11.4 38.4 l-11.1 37.2 2.5 2.7 c5.3 5.8 1.8 16.5 -5.9 18 -7.4 1.3 -14.2 -6.3 -11.7 -13.2 0.6 -1.7 1.1 -3.4 1.1 -3.7 0 -0.4 -6.9 -0.6 -15.2 -0.5 -13 0.3 -15.2 0.5 -14.9 1.8 1.6 5.8 1.2 8.8 -1.6 11.9 -3.7 4.1 -8.6 5 -13 2.2z m9.5 -3.8 c3.5 -3 3.8 -6.8 0.8 -9.7 -3 -3.1 -6.9 -3.3 -9.6 -0.6 -6.1 6.1 2.3 15.8 8.8 10.3z m48.6 -0.4 c3.3 -2.6 3.5 -7 0.4 -9.9 -2.8 -2.6 -5.8 -2.6 -9.2 0.1 -3.3 2.6 -3.4 6.2 -0.1 9.4 3 3 5.4 3.1 8.9 0.4z m-49.2 -36.4 c-0.1 -1.6 -0.4 -4.4 -0.7 -6.1 l-0.5 -3.1 -5.2 1.4 c-2.9 0.7 -6 1.3 -7 1.3 -2 0 -2.2 0.9 -0.9 4.2 0.5 1.3 1.2 3.1 1.5 4.1 0.5 1.5 1.5 1.8 6.8 1.5 l6.3 -0.3 -0.3 -3z m17.6 -5.2 l-0.3 -8.8 -5.5 -0.3 c-4.7 -0.2 -5.9 0.1 -7.7 2 -2.1 2.2 -2.1 2.7 -1 9.1 l1.1 6.7 6.8 0 6.9 0 -0.3 -8.7z m17.5 5.5 c0.3 -1.8 0.9 -5.9 1.3 -9 l0.6 -5.8 -7.6 0 -7.6 0 0 9 0 9 6.4 0 6.4 0 0.5 -3.2z m18.3 -4.8 c1.3 -4.1 2.4 -8.1 2.4 -8.7 0 -0.9 -2.1 -1.3 -7.4 -1.3 -8.5 0 -8.1 -0.4 -9.2 11.3 l-0.7 6.8 6.2 -0.3 6.3 -0.3 2.4 -7.5z m-53.7 -9.8 c12.8 -7.8 14.6 -25.9 3.7 -36 -9.9 -9.1 -23.7 -8.5 -32.4 1.3 -8.1 9.2 -8.1 22.6 0.1 31.3 7 7.5 19.6 9 28.6 3.4z m17.6 -12.5 c0 -4.8 -0.4 -8.8 -0.9 -8.9 -0.6 -0.2 -1.5 2.4 -2.1 5.7 -0.6 3.3 -1.6 7 -2.3 8.2 -1.6 2.8 -1.5 3.1 0.6 3.5 4.4 1 4.7 0.5 4.7 -8.5z m38.7 8.4 c1.2 -0.1 2.4 -2.3 4.2 -8.3 1.4 -4.5 2.3 -8.5 2 -9 -0.3 -0.4 -4.5 -0.8 -9.3 -0.8 l-8.8 0 -1.2 6.9 c-0.6 3.9 -1.1 8 -1.1 9.3 0 2.5 -1 2.3 14.2 1.9z m-16.6 -8.6 c0.7 -4.4 0.8 -8.4 0.4 -8.8 -0.4 -0.4 -4.6 -0.7 -9.5 -0.5 l-8.7 0.3 0 6.3 c0.1 12.8 -0.9 11.3 8.4 11 l8.3 -0.3 1.1 -8z"/>
  <path d="M113 85 c0 -1.1 -0.6 -2 -1.4 -2 -1.4 0 -4.6 -3.6 -4.6 -5.2 0 -0.5 0.9 -0.8 2 -0.8 1.1 0 2 0.4 2 1 0 1.6 4.9 2.3 6.5 1 1.8 -1.5 2 -4.9 0.3 -5.4 -0.7 -0.3 -2.5 -0.7 -4.1 -1 -6.8 -1.5 -8.7 -7.9 -3.7 -12.6 1.7 -1.5 3 -3.3 3 -3.9 0 -0.6 0.9 -1.1 2 -1.1 1.1 0 2 0.6 2 1.3 0 0.7 1.4 2.3 3 3.5 3.1 2.3 4 5.2 1.6 5.2 -0.7 0 -1.9 -0.7 -2.6 -1.5 -2.8 -3.4 -9.6 -0.3 -7.3 3.3 0.5 1 2.3 1.8 3.9 2 7.2 0.9 9.7 8.2 4.4 13.2 -1.6 1.5 -3 3.3 -3 3.9 0 0.6 -0.9 1.1 -2 1.1 -1.3 0 -2 -0.7 -2 -2z"/>
 </g>
</svg>