<?xml version="1.0" encoding="utf-8"?>
<!DOCTYPE svg PUBLIC "-//W3C//DTD SVG 20010904//EN" "http://www.w3.org/TR/2001/REC-SVG-20010904/DTD/svg10.dtd">
<svg version="1.0" xmlns="http://www.w3.org/2000/svg" width="300px" height="184px" viewBox="0 0 300 184" preserveAspectRatio="xMidYMid meet">
 <g fill="#cd2532">
  <path d="M0 92 l0 -92 150 0 150 0 0 92 0 92 -150 0 -150 0 0 -92z m113.8 39.3 c-1.6 -0.4 -1.8 -3.4 -2.1 -40.1 l-0.2 -39.7 -0.3 40.3 -0.2 40.2 2.3 -0.1 c1.6 -0.1 1.8 -0.2 0.5 -0.6z m24 -23 l-0.3 -8.8 -5.7 -0.3 -5.8 -0.3 0 9.1 0 9 6 0 6.1 0 -0.3 -8.7z m26.2 -11.3 l0 -20 -6 0 -6 0 0 20 0 20 6 0 6 0 0 -20z m26 -12.5 l0 -32.5 -6 0 -6 0 0 32.5 0 32.5 6 0 6 0 0 -32.5z m-31 -30.5 c0 -1.3 -0.7 -2 -2 -2 -1.3 0 -2 0.7 -2 2 0 1.3 0.7 2 2 2 1.3 0 2 -0.7 2 -2z"/>
 </g>
 <g fill="#ffffff">
  <path d="M108 92 l0 -43 3.5 0 3.5 0 0 39.4 0 39.4 2.3 0.6 c1.2 0.3 18.7 0.6 39 0.6 l36.7 0 0 3 0 3 -42.5 0 -42.5 0 0 -43z"/>
  <path d="M123 108 l0 -12.1 8.8 0.3 8.7 0.3 0.3 11.8 0.3 11.7 -9.1 0 -9 0 0 -12z"/>
  <path d="M149 97 l0 -23 9 0 9 0 0 23 0 23 -9 0 -9 0 0 -23z"/>
  <path d="M175 84.5 l0 -35.5 9 0 9 0 0 35.5 0 35.5 -9 0 -9 0 0 -35.5z"/>
  <path d="M124 86.5 c-1.2 -1.4 0.6 -3.5 13.5 -16.5 l14.9 -14.9 -2.8 -3 -2.7 -2.9 3.4 -0.6 c1.9 -0.4 5.4 -0.4 7.6 0 l4.1 0.7 0 7.5 0 7.6 -2.8 -2.7 c-1.5 -1.5 -3.2 -2.7 -3.6 -2.7 -0.5 0 -7.5 6.5 -15.6 14.5 -12.9 12.8 -14.9 14.4 -16 13z"/>
 </g>
</svg>