<?xml version="1.0" encoding="utf-8"?>
<!DOCTYPE svg PUBLIC "-//W3C//DTD SVG 20010904//EN" "http://www.w3.org/TR/2001/REC-SVG-20010904/DTD/svg10.dtd">
<svg version="1.0" xmlns="http://www.w3.org/2000/svg" width="300px" height="184px" viewBox="0 0 300 184" preserveAspectRatio="xMidYMid meet">
 <g fill="#cd2532">
  <path d="M0 92 l0 -92 150 0 150 0 0 92 0 92 -150 0 -150 0 0 -92z"/>
 </g>
 <g fill="#ffffff">
  <path d="M141.9 154.7 c-0.9 -0.6 -2.3 -2.4 -3.2 -3.9 -2.8 -4.5 -7.1 -6.1 -16 -6 -11.2 0.2 -15.7 -2.5 -15.7 -9.4 0 -1.5 -1 -3.8 -2.2 -5.2 -1.5 -1.5 -2.3 -3.7 -2.4 -6 -0.3 -9.3 -0.3 -9.2 -3.8 -10.7 -7.2 -3 -8.4 -8.5 -3.2 -14.2 5.5 -6.3 6 -7.9 6.7 -22.3 0.5 -10.8 1 -14.5 2.8 -18.5 7.4 -16.6 24.2 -27.2 47 -29.5 6.6 -0.7 11.3 -0.7 15.5 0.1 22.1 4 40.6 27.1 40.6 50.8 0 9.9 -0.9 13 -8.5 29.1 -8.8 18.6 -10.1 25 -6.9 34.4 1.4 4 1.4 5 0.3 6 -1.3 1.2 -20.2 4 -35.4 5.1 -3.8 0.3 -8.6 0.8 -10.6 1 -2 0.3 -4.2 -0.1 -5 -0.8z m24.3 -6.7 c10.1 -1.2 18.9 -2.3 19.5 -2.5 0.9 -0.3 1 -1.1 0.3 -3 -2.6 -6.7 -0.4 -16.5 7.6 -33.7 7.1 -15.3 8.6 -20.6 8.6 -29.3 -0.1 -24.7 -21 -45.6 -45.5 -45.5 -11.7 0.1 -28.3 6.3 -36.8 13.8 -2.5 2.2 -6.1 6.9 -7.9 10.3 -3.1 5.9 -3.4 7.2 -4 18.9 -0.8 13.5 -2.5 19.2 -7.5 25.2 -1.4 1.7 -2.4 3.5 -2.2 4.1 0.2 0.6 2.5 1.8 5.3 2.6 l4.9 1.6 0 7.5 c-0.1 6.1 0.3 7.8 1.8 9 1 0.9 2.1 3.6 2.5 6.5 l0.7 5 10 0.5 c11.3 0.6 14.8 2 19.2 7.5 1.5 1.9 3.3 3.5 4 3.5 0.6 0 9.4 -0.9 19.5 -2z"/>
  <path d="M144.1 110.6 c-0.6 -0.7 -1.3 -4.5 -1.6 -8.4 -0.3 -5 -1.1 -8.5 -3 -12.1 -8.1 -16.1 -0.4 -30 16.8 -30.1 13.4 0 21.4 7.8 20.5 20.1 -0.3 4.6 -1.2 6.9 -4.3 11.6 -3.6 5.3 -3.9 6.4 -4 12.8 l0 7 -11.6 0.3 c-9.1 0.2 -11.9 0 -12.8 -1.2z m18.9 -5.5 c0 -0.9 -12.8 -2.3 -14.2 -1.5 -0.4 0.3 -0.6 1 -0.3 1.5 0.8 1.1 14.5 1.2 14.5 0z m0.5 -10.2 c0.9 -1.7 3.2 -5.1 5.1 -7.6 6.7 -8.8 3.2 -17.9 -8.4 -21.3 -5.7 -1.8 -11 -0.1 -15.2 4.7 -2.9 3.2 -3.2 4.1 -2.8 8.4 0.3 2.6 1.7 7 3.1 9.8 1.5 2.8 2.7 5.7 2.7 6.6 0 1 1 1.5 2.9 1.5 2.7 0 2.9 -0.3 3.4 -4.7 0.3 -3.2 0 -5.7 -1 -7.7 -1.9 -3.7 -0.3 -5.8 2.6 -3.2 1.2 1.1 2.1 1.4 2.6 0.7 0.9 -1.6 3.5 -1.3 4.2 0.5 0.3 0.8 -0.3 2.5 -1.5 3.7 -2.2 2.3 -3.8 8.8 -2.7 10.6 1.2 2 3.4 1.1 5 -2z"/>
  <path d="M120 76 c0 -1.7 0.7 -2 4.1 -2 4.5 0 8.3 1.6 7.4 3.1 -0.4 0.5 -3.1 0.9 -6.1 0.9 -4.7 0 -5.4 -0.2 -5.4 -2z"/>
  <path d="M182 75 c-2 -1.3 0.1 -3.4 5 -5 3.1 -1 4.3 -1.1 5.2 -0.2 1.5 1.5 0.5 2.4 -4.8 4.5 -2.4 0.9 -4.6 1.2 -5.4 0.7z"/>
  <path d="M136.6 53.8 c-4 -6.8 -0.9 -8.4 3.7 -1.9 3.2 4.6 3.4 6.1 0.8 6.1 -1.3 0 -2.9 -1.6 -4.5 -4.2z"/>
  <path d="M168.5 56.1 c-0.9 -1.6 3.5 -8.1 5.6 -8.1 2.4 0 2.4 0.4 -0.3 5.1 -2.1 3.8 -4.1 4.9 -5.3 3z"/>
 </g>
</svg>