<?xml version="1.0" encoding="utf-8"?>
<!DOCTYPE svg PUBLIC "-//W3C//DTD SVG 20010904//EN" "http://www.w3.org/TR/2001/REC-SVG-20010904/DTD/svg10.dtd">
<svg version="1.0" xmlns="http://www.w3.org/2000/svg" width="2314px" height="791px" viewBox="0 0 2314 791" preserveAspectRatio="xMidYMid meet">
 <g fill="#cd2532" stroke="#cd2532" stroke-width="1">
  <path d="M742.7 732.5 c-5.3 -2 -12.2 -7.2 -15.1 -11.4 -5.8 -8.4 -6 -9.6 -6.4 -37.4 -0.4 -27.4 -0.2 -28.7 4.3 -28.7 5.7 0 5.5 -0.8 5.5 25.4 0 25.9 0.6 30.5 5 36.7 3.5 4.8 11.8 8.2 18.9 7.7 10.9 -0.8 18.1 -7.1 20.1 -17.7 0.5 -2.9 1 -15.6 1 -28.2 0 -22.2 0.1 -22.8 2.1 -23.4 1.1 -0.4 3.2 -0.4 4.5 -0.1 l2.5 0.7 -0.3 28.2 -0.3 28.2 -3 5.4 c-5.7 10.3 -16.1 16.2 -28.3 16 -3.7 0 -8.4 -0.7 -10.5 -1.4z"/>
  <path d="M845.5 732.6 c-2.2 -0.7 -5.6 -2.1 -7.5 -3 -4 -2.1 -11 -8.5 -11 -10.1 0 -0.6 1.1 -2.2 2.5 -3.5 1.8 -1.7 3 -2.2 3.9 -1.5 8.2 5.9 10.8 7.5 14.9 8.9 5.6 1.9 8.3 2 14.2 0.5 6.5 -1.6 11.5 -6.4 12.2 -11.5 1 -7.8 -1.7 -9.8 -21.9 -16.5 -18.4 -6 -23.8 -10.7 -23.8 -20.7 0 -15.1 17.9 -24.8 35.6 -19.3 7.7 2.3 16.4 8.2 16.4 10.9 0 1 -1.3 2.8 -2.8 3.9 -2.8 2.1 -2.9 2.1 -5.3 0.2 -5.7 -4.6 -11.7 -6.9 -17.9 -6.9 -9.3 0 -16 4.7 -16 11.2 0 5.3 4.2 8.1 19 12.9 20.3 6.5 26.5 11.8 26.4 22.4 -0.2 9.6 -6.4 17.5 -16.9 21.4 -6.4 2.4 -15.7 2.7 -22 0.7z"/>
  <path d="M1120.3 732.1 c-22.9 -8.5 -33.4 -34.1 -22.6 -55.5 7.3 -14.3 24.7 -24.1 39.6 -22.2 6.4 0.9 15.1 4.2 18.4 7 l2.6 2.3 -1.9 3.1 c-1 1.8 -2.3 3.2 -2.8 3.2 -0.5 0 -3.4 -1.2 -6.5 -2.7 -11.3 -5.6 -26.5 -2.9 -35.4 6.2 -6.1 6.3 -8.2 11.7 -8.2 21.5 0 7.5 0.3 9.1 3 13.8 3.5 6.4 7.1 9.7 14.3 13 7.4 3.4 18.2 2.9 26.3 -1.1 3.1 -1.5 5.9 -2.7 6.3 -2.7 0.3 0 1.5 1.4 2.6 3.2 2.6 4.2 1.5 5.8 -6.2 9.3 -8.4 3.8 -21.6 4.5 -29.5 1.6z"/>
  <path d="M1220.5 732.6 c-11.2 -3.6 -20 -11.2 -24.9 -21.6 -4 -8.7 -4.8 -20.6 -1.7 -29.2 6.6 -18.8 25.7 -30.4 44.4 -26.9 16.4 3 29.2 15.8 32.7 32.5 3.9 18.8 -8.4 38.9 -27.2 44.8 -6.9 2.1 -17.4 2.3 -23.3 0.4z m21.8 -10.2 c6.4 -2.2 13.9 -9.1 16.8 -15.6 3.5 -7.9 3.4 -18.4 -0.4 -26 -10 -20.3 -39.1 -22.7 -51.8 -4.2 -8 11.7 -7.1 27.2 2.1 37.8 7.7 8.7 21.5 12 33.3 8z"/>
  <path d="M524.2 694.3 l0.3 -38.8 19.1 0 19.1 0 4.9 3 c3.7 2.3 5.6 4.4 7.7 8.4 3.9 7.9 3.3 15.9 -1.9 22 l-2.4 2.9 2.9 2.1 c3.7 2.6 8.1 11.4 8.1 15.9 0 8.7 -5.8 17.8 -13.4 21.3 -3.6 1.6 -6.8 1.9 -24.4 1.9 l-20.2 0 0.2 -38.7z m39.8 28.4 c6.8 -2.4 10.1 -11.8 6.5 -18.7 -2.7 -5.2 -5.7 -6 -22.5 -6 l-15 0 0 13 0 13 13.8 -0.1 c7.8 0 15.2 -0.5 17.2 -1.2z m0.1 -37.5 c2.6 -2.3 3.3 -3.8 3.7 -8 0.4 -4.9 0.2 -5.4 -3.1 -8.7 l-3.5 -3.5 -14.1 0 -14.1 0 0 11.5 0 11.5 14 0 c13.9 0 14 0 17.1 -2.8z"/>
  <path d="M622.6 731.4 c-0.3 -0.9 -0.6 -17.6 -0.6 -37.3 0 -27.8 0.3 -36.1 1.3 -37.5 1.2 -1.6 2.9 -1.8 19.8 -1.4 16.5 0.3 18.8 0.6 22.5 2.5 6 3.2 11.1 9.3 12.9 15.8 2.9 9.7 0.1 18.1 -8.2 25.4 l-4.7 4.2 7.1 14.3 c4 7.9 6.9 14.7 6.6 15 -0.4 0.3 -2.6 0.6 -5 0.6 l-4.3 0 -6.6 -14 -6.7 -14 -12.4 0 -12.3 0 0 14 0 14 -4.4 0 c-3.1 0 -4.6 -0.5 -5 -1.6z m40.5 -38.7 c1.9 -1.2 4.2 -3.8 5.1 -5.7 3.5 -7 1.3 -15.4 -5.1 -19.7 -3.1 -2.1 -4.5 -2.3 -17.2 -2.3 l-13.9 0 0 15 0 15 13.9 0 c12.7 0 14.1 -0.2 17.2 -2.3z"/>
  <path d="M927 694.5 l0 -38.5 2.4 -0.6 c6 -1.5 6.1 -1.3 6.4 15.9 l0.3 15.7 22.4 0 22.5 0 0 -14.8 c0 -15.6 0.4 -17.2 4.6 -17.2 5.7 0 5.4 -2.1 5.4 39.6 l0 38.4 -4.4 0 c-3.1 0 -4.6 -0.5 -5 -1.6 -0.3 -0.9 -0.6 -9 -0.6 -18 l0 -16.4 -22.5 0 -22.5 0 0 18 0 18 -4.5 0 -4.5 0 0 -38.5z"/>
  <path d="M1311 730.5 c0 -6.8 8.1 -73 9.1 -74.1 1.4 -1.7 9.3 -1.8 10.6 -0.1 0.5 0.6 6.1 13.7 12.3 29 6.2 15.3 11.6 27.4 12 27 0.4 -0.4 5.8 -13.2 12 -28.3 6.2 -15.1 11.7 -27.8 12.4 -28.2 1.5 -1 7.8 -1 9.5 0.1 0.9 0.6 2.5 11.6 5.6 38.2 2.3 20.6 4 37.7 3.8 38.2 -0.6 1 -9.3 0.9 -9.3 -0.2 0 -0.4 -1.3 -13.6 -3 -29.1 -1.6 -15.5 -3 -29 -3 -29.8 0 -0.8 -0.3 -1.3 -0.6 -0.9 -0.3 0.3 -5.9 13.3 -12.3 28.9 l-11.8 28.3 -3.5 0.3 c-4.1 0.4 -2.2 3.7 -16.4 -30.6 -5.8 -14.2 -10.9 -26 -11.3 -26.4 -0.4 -0.4 -1.9 11.7 -3.4 27 -3.7 36.3 -2.9 33.2 -8.3 33.2 -4 0 -4.4 -0.2 -4.4 -2.5z"/>
  <path d="M1440.2 694.3 l0.3 -38.8 14.4 -0.3 c10.7 -0.2 15.7 0.1 19.7 1.3 14.5 4.2 21.4 20.2 14.7 33.6 -5.3 10.3 -13.2 13.9 -30.8 13.9 l-9.5 0 0 14.5 0 14.5 -4.5 0 -4.5 0 0.2 -38.7z m33.7 -1.8 c1.6 -0.8 4 -2.8 5.5 -4.5 3.3 -4 3.6 -11.6 0.6 -16.5 -3.2 -5.2 -7.2 -6.5 -19.9 -6.5 l-11.1 0 0 14.5 0 14.5 11 0 c7.8 0 11.9 -0.4 13.9 -1.5z"/>
  <path d="M1522 731.8 c0.1 -0.7 7.2 -18.2 15.8 -38.8 l15.7 -37.5 3.5 0 3.5 0 15.7 38 c8.6 20.9 15.4 38.3 15.2 38.7 -0.3 0.5 -2.5 0.8 -4.9 0.8 l-4.4 0 -3.2 -8 -3.3 -8 -19 0.2 -19 0.3 -2.6 6.5 c-3.4 8.9 -3.5 9 -8.6 9 -2.9 0 -4.4 -0.4 -4.4 -1.2z m49 -25.5 c0.1 -1.4 -13.5 -35.3 -14.1 -35.3 -0.3 0 -3.2 6.6 -6.4 14.8 -3.2 8.1 -6.5 16.2 -7.2 18 l-1.3 3.2 14.5 0 c8 0 14.5 -0.3 14.5 -0.7z"/>
  <path d="M1632.2 694.3 l0.3 -38.8 4.1 -0.3 c2.6 -0.2 4.7 0.2 5.5 1.1 0.8 0.8 11.1 14.3 22.9 30 11.8 15.8 21.8 28.6 22.2 28.7 0.4 0 0.9 -13.4 1 -29.7 l0.3 -29.8 3.6 -0.3 c2.2 -0.2 4 0.2 4.7 1.1 0.9 1.1 1.2 11.3 1 38.8 l-0.3 37.4 -4.2 0.3 c-3.1 0.2 -4.6 -0.2 -6 -1.7 -1 -1.1 -11.5 -15 -23.3 -31 -11.8 -15.9 -21.8 -29 -22.2 -29 -0.5 -0.1 -0.8 13.9 -0.8 30.9 l0 31 -4.5 0 -4.5 0 0.2 -38.7z"/>
  <path d="M1761.7 732.3 c-0.4 -0.3 -0.7 -7.9 -0.7 -16.7 l-0.1 -16.1 -12.8 -21.5 c-7.1 -11.8 -12.7 -21.8 -12.4 -22.2 0.2 -0.5 2.4 -0.8 4.8 -0.8 5.3 0 5.2 -0.1 16.5 19.9 4.7 8.2 8.7 15 9 15.1 0.3 0 5.1 -7.8 10.7 -17.2 l10 -17.3 5.2 -0.3 c3.2 -0.2 5.1 0.1 5.1 0.8 0 0.6 -5.8 10.8 -13 22.7 l-13 21.7 0 16.3 0 16.3 -4.3 0 c-2.4 0 -4.7 -0.3 -5 -0.7z"/>
  <path d="M117.8 545.8 c-8.6 -24.4 -28.1 -79.7 -43.3 -123 l-27.8 -78.8 -10.8 0 -10.9 0 0 -30.5 0 -30.5 56 0 56 0 0 30.5 0 30.5 -10.5 0 c-5.8 0 -10.5 0.3 -10.5 0.8 0 0.4 9.7 31.1 21.4 68.2 19.8 62.5 21.5 67.3 22.6 64.5 1.7 -4.4 67 -193.6 67 -194.1 0 -0.2 11.5 -0.3 25.6 -0.2 l25.6 0.3 32.8 97.8 c18.1 53.8 33 98 33.2 98.2 0.2 0.2 10.5 -30.2 23 -67.6 l22.6 -67.9 -10.9 0 -10.9 0 0 -30.5 0 -30.5 56 0 56 0 0 30.5 0 30.4 -10.7 0.3 -10.7 0.3 -43.6 122.5 -43.6 122.5 -25.6 0.3 -25.6 0.2 -1 -2.7 c-0.5 -1.6 -15.4 -44.2 -33.2 -94.8 -17.7 -50.6 -32.5 -92.4 -32.9 -92.8 -0.4 -0.4 -16.3 42.1 -35.3 94.5 l-34.5 95.3 -24.9 0.3 -25 0.2 -15.6 -44.2z"/>
  <path d="M606 589 c-36.5 -4.5 -67.9 -20.4 -94 -47.6 -19.9 -20.8 -32.7 -45.5 -39.1 -75.4 -3.3 -15.2 -3.3 -43.8 0 -59 6.6 -31.2 20.1 -56.1 42.6 -78.6 21.3 -21.3 44.9 -34.5 74 -41.2 68.8 -16 141.4 19.1 171.9 83.2 28.2 58.9 16.3 128.2 -29.9 174.1 -6 6.1 -14.7 13.6 -19.2 16.8 -17.2 12.2 -39.1 21.6 -60.1 25.8 -11.4 2.2 -35.3 3.2 -46.2 1.9z m35.5 -64.9 c33.2 -6.8 59.7 -32.1 68.6 -65.6 3.1 -11.4 3.1 -32.6 0.1 -44 -8.4 -31.3 -33.3 -56.2 -64.7 -64.6 -11.8 -3.2 -32.7 -3.2 -44.5 -0.1 -68 18.3 -90 102.9 -39.4 151.3 11 10.5 21.6 16.8 35.1 20.9 14.6 4.4 30.1 5.2 44.8 2.1z"/>
  <path d="M936.5 589.3 c-9.1 -0.8 -26.1 -4.6 -35.7 -7.9 -73.2 -25.4 -116.3 -101.9 -99.8 -177.4 16.2 -74.7 86.8 -126.9 162.1 -120.1 37.6 3.4 68.9 18 95.4 44.6 34.5 34.4 50.3 80.5 44 127.8 -4.6 34.5 -18.8 63.1 -44 88.2 -13.8 13.9 -25.3 22.1 -41.8 30 -25.6 12.3 -52.6 17.3 -80.2 14.8z m37.4 -66.3 c15.5 -4.4 27 -10.9 38.5 -21.9 11.9 -11.4 19.3 -23.6 24.3 -39.8 2.4 -7.9 2.6 -10.5 2.7 -24.3 0.1 -13.2 -0.3 -16.6 -2.2 -23.3 -9.2 -32.1 -32.6 -55.3 -64.6 -64 -11.3 -3 -32.5 -3 -44.1 0.1 -17.9 4.8 -35.8 16.3 -47.2 30.2 -6.6 8.1 -14.6 23.9 -17.5 34.5 -2.8 10.6 -3 31.6 -0.5 41.9 8.7 34.7 34.4 60.1 68.7 67.7 11.4 2.5 31.1 2 41.9 -1.1z"/>
  <path d="M1475.3 556.8 c0.3 -31.4 0.5 -34.5 3.5 -53.7 6 -39 9.1 -77.5 10.8 -135.8 l0.6 -23.3 -18.6 0 -18.6 0 0 10 0 10 -31 0 -31 0 0 -40.5 0 -40.5 126 0 126 0 0 40.5 0 40.5 -29.5 0 -29.5 0 0 -10 0 -10 -18.7 0 -18.6 0 0.6 31.8 c1 49.2 3.5 78.3 11.2 132 3.4 23.2 3.5 25.4 3.5 53.2 l0 29 -43.6 0 -43.5 0 0.4 -33.2z"/>
  <path d="M1665 559.5 l0 -30.5 10.5 0 10.5 0 0 -92.5 0 -92.5 -10.5 0 -10.5 0 0 -30.5 0 -30.5 123.5 0 123.5 0 0 40.5 0 40.5 -30.5 0 -30.5 0 0 -10 0 -10 -50 0 -50 0 0 30.5 0 30.5 56 0 56 0 0 31 0 31 -56 0 -56 0 0 31 0 31 50 0 50 0 0 -9.5 0 -9.5 30.5 0 30.5 0 0 40 0 40 -123.5 0 -123.5 0 0 -30.5z"/>
  <path d="M1933 559.5 l0 -30.5 11 0 11 0 0 -92 0 -92 -11 0 -11 0 0 -31 0 -31.1 93.8 0.3 93.7 0.3 10 2.8 c36.9 10 64.2 37.8 74.1 75.2 2.9 10.8 2.6 37 -0.5 48.5 -7.6 28.2 -26.9 52.3 -52.3 65.1 -4.3 2.2 -7.8 4.2 -7.8 4.5 0 0.3 7.8 11.6 17.3 25 l17.2 24.4 14.8 0 14.7 0 0 30.5 0 30.5 -54.5 0 -54.5 0 0 -31.1 0 -31 -14.6 -20.5 -14.6 -20.4 -25.4 0 -25.4 0 0 21 0 21 11 0 11 0 0 30.5 0 30.5 -54 0 -54 0 0 -30.5z m183.3 -138.2 c8.2 -3.9 15 -10.6 19.2 -18.9 2.8 -5.5 3 -6.6 3 -17.4 0 -10.7 -0.2 -11.9 -2.9 -17.5 -3.8 -7.7 -11.4 -15.3 -19.1 -19.1 l-6 -2.9 -45.7 -0.3 -45.8 -0.3 0 40.1 0 40.1 45.3 -0.3 45.2 -0.3 6.8 -3.2z"/>
  <path d="M2250 589.1 c-7.2 -2.2 -14.5 -8.4 -18.2 -15.4 -1.9 -3.4 -2.3 -5.8 -2.3 -13.2 0 -7.6 0.4 -9.7 2.5 -13.8 8.8 -17.3 31.6 -21.6 46.3 -8.7 8.4 7.4 12 18.5 9.3 29.1 -2.7 10.3 -9.6 18 -19.3 21.5 -4.1 1.4 -14.2 1.7 -18.3 0.5z m19.8 -6 c4.4 -2.3 9.3 -7.3 11.8 -12.1 2.6 -5.2 2.5 -16.3 -0.3 -21.5 -8.2 -15.6 -26.6 -19.2 -39.3 -7.8 -5.9 5.3 -8.3 10.8 -8.3 19 0.1 14.9 12.4 26.2 27.1 24.8 3 -0.3 7 -1.4 9 -2.4z"/>
  <path d="M2246 560.4 l0 -16.6 10.4 0.4 c9.5 0.3 10.7 0.5 13.1 2.8 2.2 2 2.5 3.2 2.3 7 -0.3 4 -0.7 4.7 -3.6 6.2 l-3.4 1.6 3 1.6 c3.2 1.6 4.2 4 4.2 9.9 0 3.8 0 3.8 -3.7 3.5 -3.7 -0.3 -3.8 -0.4 -4.4 -5.1 -0.6 -5.4 -1.9 -6.7 -6.6 -6.7 l-3.3 0 0 6 0 6 -4 0 -4 0 0 -16.6z m16.8 -2.6 c0.7 -0.7 1.2 -2.5 1.2 -4 0 -3.1 -2.8 -4.8 -7.6 -4.8 -2.2 0 -2.4 0.4 -2.4 5 l0 5 3.8 0 c2.1 0 4.3 -0.5 5 -1.2z"/>
  <path d="M1223 587.3 c-1.9 -0.2 -8.4 -1.3 -14.3 -2.4 -32.8 -6.1 -61.6 -22.5 -81.9 -46.7 l-6.8 -8 0 -30.1 0 -30.1 31 0 31 0 0 15.3 0 15.3 3.8 3.6 c9.9 9.4 26.9 18.9 39.8 22.2 21.3 5.5 47.5 3.2 59.6 -5.2 11.9 -8.2 13.2 -26.5 2.5 -35.9 -9.1 -8 -19 -11.6 -58.3 -21.3 -33 -8.2 -45.8 -12.2 -60 -19 -24 -11.3 -37.4 -24.6 -44.5 -44.1 -9.3 -25.6 -3.9 -57.4 13.7 -79.8 14.4 -18.5 38.3 -30.8 70.9 -36.6 12.1 -2.2 43.2 -3.1 56.3 -1.6 21.8 2.4 39.5 7.3 55.9 15.7 16.8 8.5 29.9 19 43.5 34.7 l5.8 6.8 0 29.9 0 30 -31 0 -30.9 0 -0.3 -15.7 -0.3 -15.8 -8.4 -6.7 c-16.6 -13.3 -33.6 -19.6 -55.2 -20.5 -31.4 -1.3 -48.8 8.3 -48.9 27 0 7 2.3 11.9 7.9 17 8.4 7.6 19.8 11.8 54.6 20.2 54.4 13.2 73.1 21.2 91.1 39 14.9 14.9 20.6 28.7 20.7 51 0.2 49.6 -34.5 83.2 -94 91 -10.4 1.4 -43.3 1.9 -53.3 0.8z"/>
  <path d="M1391 252 l0 -10 126 0 126 0 0 10 0 10 -126 0 -126 0 0 -10z"/>
  <path d="M1391.2 169.3 l0.3 -51.7 125 -31.3 c68.8 -17.2 125.3 -31.3 125.8 -31.3 0.4 0 0.7 37.4 0.7 83 l0 83 -126 0 -126 0 0.2 -51.7z"/>
  <path d="M736 218.1 l-5.5 -0.6 0.4 -38.5 c0.2 -21.2 0.5 -38.8 0.8 -39.2 0.5 -1 46.7 -1.1 51.2 -0.2 2.9 0.6 3.1 0.9 3.1 5 l0 4.4 -23 0 -23 0 0 11.5 0 11.5 17.9 0 c19.3 0 19.1 0 19.1 5.4 0 4.3 -1.5 4.6 -19.7 4.6 l-17.3 0 0 13.5 0 13.5 23.1 0 23 0 -0.3 4.8 -0.3 4.7 -22 0.1 c-12.1 0 -24.5 -0.2 -27.5 -0.5z"/>
  <path d="M548.6 216.5 c-0.3 -0.9 -0.6 -16.5 -0.6 -34.6 l0 -32.8 -11.7 -0.3 -11.8 -0.3 0 -4.5 0 -4.5 29 0 29 0 0 4.5 0 4.5 -12.2 0.3 -12.3 0.3 -0.2 34.2 -0.3 34.2 -4.1 0.3 c-3.1 0.2 -4.3 -0.1 -4.8 -1.3z"/>
  <path d="M622.2 178.8 l0.3 -39.3 3.5 -0.3 c5.7 -0.6 6.1 1 5.4 18 l-0.7 14.8 23.1 0 23.2 0 0 -15.3 c0 -10.6 0.4 -15.7 1.2 -16.5 1.5 -1.5 6.1 -1.5 7.6 0 0.9 0.9 1.2 11 1.2 39.5 l0 38.3 -5 0 -5 0 0 -18 0 -18 -23 0 -23 0 0 18 0 18 -4.5 0 -4.5 0 0.2 -39.2z"/>
 </g>
</svg>